<?xml version="1.0" encoding="UTF-8"?>
<svg version="1.1" xmlns="http://www.w3.org/2000/svg" width="200" height="172">
<path d="M0 0 C3.80558699 1.48877909 5.31249377 3.52185896 7.5625 6.875 C10.61732361 11.21875476 13.82674473 15.18595303 17.4375 19.0625 C17.90671875 19.56716797 18.3759375 20.07183594 18.859375 20.59179688 C21.01466697 22.8989119 23.18300325 25.19364297 25.3515625 27.48828125 C38.36390628 41.53517534 49.21929007 57.07696422 50.1328125 76.87890625 C49.47827016 90.10451184 42.63884985 104.35092354 32.98828125 113.40234375 C23.22712764 121.24578545 12.57469091 124.90571476 0 124 C-4.01922475 123.43147497 -8.00995494 122.74480841 -12 122 C-12 121.34 -12 120.68 -12 120 C-10.49373047 119.96132812 -10.49373047 119.96132812 -8.95703125 119.921875 C5.18784991 119.40204714 16.94650974 117.05349026 27.25 106.75 C34.02059608 96.11049187 35.25074836 84.27697098 32.8671875 72 C30.9300832 65.29866619 27.99851054 58.90898498 23 54 C23 53.34 23 52.68 23 52 C22.01 52.495 22.01 52.495 21 53 C21.56589844 54.10859375 22.13179687 55.2171875 22.71484375 56.359375 C23.45594175 57.82280903 24.19681544 59.28635667 24.9375 60.75 C25.31068359 61.47960937 25.68386719 62.20921875 26.06835938 62.9609375 C26.42607422 63.66992188 26.78378906 64.37890625 27.15234375 65.109375 C27.48226318 65.75874023 27.81218262 66.40810547 28.15209961 67.07714844 C31.71682028 75.16115075 31.17814603 86.66871327 28.4375 94.9375 C24.33789981 104.45085793 18.36329153 110.58608359 9 115 C-0.38372032 118.73041341 -11.25168771 118.25216169 -20.50390625 114.3203125 C-29.29820141 109.668557 -35.78488518 103.26474055 -39.13671875 93.78515625 C-43.50972364 74.61121173 -36.98075164 57.64831781 -28 41 C-27.64776367 40.33178223 -27.29552734 39.66356445 -26.93261719 38.97509766 C-21.47072656 28.62954589 -15.13837659 19.25723683 -8 10 C-7.2678125 9.04222656 -6.535625 8.08445312 -5.78125 7.09765625 C-1.35086207 1.35086207 -1.35086207 1.35086207 0 0 Z " fill="#7AAD28" transform="translate(96,4)"/>
<path d="M0 0 C0 2.98434455 -0.47997123 4.44381149 -1.5 7.1875 C-4.63969147 17.52734932 -4.31063325 28.48328741 0.38671875 38.26171875 C3.61676843 43.74420017 7.57115499 48.51456055 12.01171875 53.05859375 C16.43700922 57.65776596 19.62159527 62.43354611 22.5625 68.0625 C22.92150391 68.72330566 23.28050781 69.38411133 23.65039062 70.06494141 C26.1788642 75.15595482 26.30857412 78.45303538 25 84 C23.80078125 86.20703125 23.80078125 86.20703125 22.3125 87.8125 C21.83425781 88.35519531 21.35601562 88.89789063 20.86328125 89.45703125 C15.85974097 93.60042415 11.10466933 94.52908221 4.75 94.4375 C3.99855713 94.42775146 3.24711426 94.41800293 2.47290039 94.40795898 C-4.88488229 94.17408915 -10.71838784 93.02224075 -16.2734375 87.90625 C-24.74099868 78.73560613 -27.52541864 70.44450967 -27.3046875 57.9609375 C-26.34431578 45.47610513 -20.85986577 34.81075017 -15 24 C-14.62117676 23.29456055 -14.24235352 22.58912109 -13.85205078 21.86230469 C-9.70486022 14.17508482 -5.52573519 6.80090485 0 0 Z " fill="#007BC2" transform="translate(83,21)"/>
<path d="M0 0 C3.2437025 2.43277687 4.68700289 3.91654848 5.8125 7.8125 C5.874375 8.534375 5.93625 9.25625 6 10 C2.625 10.1875 2.625 10.1875 -1 10 C-1.66 9.01 -2.32 8.02 -3 7 C-5.31 7.33 -7.62 7.66 -10 8 C-10 10.64 -10 13.28 -10 16 C-7.69 16.33 -5.38 16.66 -3 17 C-2.34 16.01 -1.68 15.02 -1 14 C2.625 13.8125 2.625 13.8125 6 14 C5.73212125 17.92888829 5.47562903 19.54876221 2.5625 22.3125 C-1.62359421 25.06919619 -5.01887637 25.69310626 -10 25 C-15.5 22 -15.5 22 -17 19 C-17.495 21.475 -17.495 21.475 -18 24 C-23.61 24 -29.22 24 -35 24 C-35 18.06 -35 12.12 -35 6 C-36.98 6 -38.96 6 -41 6 C-41 11.94 -41 17.88 -41 24 C-43.64 24 -46.28 24 -49 24 C-49 18.06 -49 12.12 -49 6 C-50.98 6 -52.96 6 -55 6 C-55 4.02 -55 2.04 -55 0 C-43.12 0 -31.24 0 -19 0 C-18.505 2.475 -18.505 2.475 -18 5 C-19 6 -19 6 -20.84765625 6.09765625 C-22.8984375 6.06510417 -24.94921875 6.03255208 -27 6 C-27 6.99 -27 7.98 -27 9 C-24.03 9 -21.06 9 -18 9 C-17.67 7.68 -17.34 6.36 -17 5 C-12.00796158 -0.8527347 -7.32039984 -2.02257037 0 0 Z M-35 4 C-34 6 -34 6 -34 6 Z M-27 15 C-27 15.99 -27 16.98 -27 18 C-24.03 18 -21.06 18 -18 18 C-18.33 16.68 -18.66 15.36 -19 14 C-21.65776566 14 -24.37423517 14.61807057 -27 15 Z " fill="#70B734" transform="translate(164,132)"/>
<path d="M0 0 C2.82848685 2.45631752 4.11881922 5.0324226 5.625 8.4375 C6.05039063 9.38496094 6.47578125 10.33242187 6.9140625 11.30859375 C10.40253277 19.95447871 10.36831571 31.09495346 7.4375 39.9375 C3.33789981 49.45085793 -2.63670847 55.58608359 -12 60 C-21.38372032 63.73041341 -32.25168771 63.25216169 -41.50390625 59.3203125 C-50.35606356 54.63795073 -57.28268947 47.88024025 -60.4375 38.1875 C-60.97447875 35.1446204 -60.84792306 33.85323016 -60 31 C-59.62875 32.134375 -59.2575 33.26875 -58.875 34.4375 C-55.64595605 43.01274407 -50.84277228 49.39235339 -42.75 53.75 C-35.45634741 56.25545318 -25.51123256 56.60116987 -18.2265625 54.015625 C-16.24457614 52.82201239 -14.65101901 51.61360215 -13 50 C-12.360625 49.401875 -11.72125 48.80375 -11.0625 48.1875 C-9.33887831 44.63886711 -8.46186122 41.89851653 -9 38 C-10.38280241 34.92554591 -11.8360831 32.0011493 -13.54638672 29.10009766 C-15.3411688 25.94209984 -16.01973572 24.2406661 -15.71875 20.5703125 C-15.4815625 19.72210938 -15.244375 18.87390625 -15 18 C-12.375 18.3125 -12.375 18.3125 -9 20 C-4.68925664 26.19359678 -1.82607187 32.17288729 -1.9375 39.75 C-1.94652344 40.54921875 -1.95554688 41.3484375 -1.96484375 42.171875 C-1.97644531 42.77515625 -1.98804688 43.3784375 -2 44 C-1.34 44 -0.68 44 0 44 C0.13277344 43.43152344 0.26554687 42.86304688 0.40234375 42.27734375 C1 40 1 40 1.75390625 37.87890625 C4.23011417 30.78522849 5.9630962 21.95488909 3.10546875 14.7421875 C1.99059869 12.84512805 1.99059869 12.84512805 0 11 C0.66 10.67 1.32 10.34 2 10 C1.855625 9.278125 1.71125 8.55625 1.5625 7.8125 C1.04166667 5.20833333 0.52083333 2.60416667 0 0 Z " fill="#247638" transform="translate(117,59)"/>
<path d="M0 0 C3.80558699 1.48877909 5.31249377 3.52185896 7.5625 6.875 C10.61732361 11.21875476 13.82674473 15.18595303 17.4375 19.0625 C17.90671875 19.56716797 18.3759375 20.07183594 18.859375 20.59179688 C21.01466697 22.8989119 23.18300325 25.19364297 25.3515625 27.48828125 C47 50.85788428 47 50.85788428 47 63 C43 63 43 63 41 62 C40.375 59.9375 40.375 59.9375 40 58 C39.01 58 38.02 58 37 58 C35.99539469 55.87717331 34.99644398 53.75166979 34 51.625 C33.443125 50.44164062 32.88625 49.25828125 32.3125 48.0390625 C31 45 31 45 31 43 C30.34 43 29.68 43 29 43 C26 38.61538462 26 38.61538462 26 36 C25.38125 35.71125 24.7625 35.4225 24.125 35.125 C22 34 22 34 20 32 C20.33 33.98 20.66 35.96 21 38 C21.66 38 22.32 38 23 38 C23.33 39.32 23.66 40.64 24 42 C14.98275898 38.90837451 10.52184039 32.01038812 6 24 C4.36644315 20.0670083 3.12220256 16.10489882 2 12 C1.66355469 10.85724609 1.66355469 10.85724609 1.3203125 9.69140625 C0.86242809 8.13271754 0.42744786 6.56730883 0 5 C-1.99983534 5.79117904 -1.99983534 5.79117904 -4 7 C-4.33 7.99 -4.66 8.98 -5 10 C-5.66 10 -6.32 10 -7 10 C-5.33248852 6.05860922 -2.77289351 3.2107188 0 0 Z " fill="#A7CA49" transform="translate(96,4)"/>
<path d="M0 0 C3.14825838 1.58407106 4.97300278 3.1400007 7.16796875 5.93359375 C8.50984205 10.76433763 7.84849749 14.63976676 6.10546875 19.30859375 C3.88351963 22.03048142 2.22570445 23.7484759 -0.89453125 25.30859375 C-6.17986742 25.7565036 -9.90599529 25.56644664 -14.4140625 22.63671875 C-17.11555221 20.21321875 -17.9605707 17.75257329 -18.89453125 14.30859375 C-18.73020131 9.54302562 -17.9051622 6.04592873 -14.89453125 2.30859375 C-10.11727237 -0.84005415 -5.53270632 -2.01915262 0 0 Z M-9.26953125 7.37109375 C-11.15841695 9.27869636 -11.15841695 9.27869636 -11.33203125 12.30859375 C-11.08434458 15.22998014 -11.08434458 15.22998014 -9.83203125 17.24609375 C-6.76983472 18.92536282 -4.20082184 17.994805 -0.89453125 17.30859375 C-0.89453125 16.97859375 -0.89453125 16.64859375 -0.89453125 16.30859375 C-2.54453125 15.97859375 -4.19453125 15.64859375 -5.89453125 15.30859375 C-6.22453125 13.98859375 -6.55453125 12.66859375 -6.89453125 11.30859375 C-2.27453125 11.30859375 2.34546875 11.30859375 7.10546875 11.30859375 C3.25453995 9.01045135 3.25453995 9.01045135 -0.89453125 9.30859375 C-0.89453125 8.64859375 -0.89453125 7.98859375 -0.89453125 7.30859375 C-5.15164344 6.22887098 -5.15164344 6.22887098 -9.26953125 7.37109375 Z " fill="#0E883D" transform="translate(51.89453125,131.69140625)"/>
<path d="M0 0 C0.66 0.33 1.32 0.66 2 1 C2.99 0.67 3.98 0.34 5 0 C5.06469482 0.57331055 5.12938965 1.14662109 5.19604492 1.73730469 C6.92886165 16.56962095 8.99499126 29.31029907 19 41 C17 40 15 39 13 38 C13 37.34 13 36.68 13 36 C12.34 36 11.68 36 11 36 C11 35.34 11 34.68 11 34 C10.34 34 9.68 34 9 34 C7.4921875 31.8125 7.4921875 31.8125 5.875 29 C5.33617188 28.071875 4.79734375 27.14375 4.2421875 26.1875 C3.62730469 25.1046875 3.62730469 25.1046875 3 24 C4.98626265 36.13827176 14.53313216 43.80872641 23 52 C22.67 52.66 22.34 53.32 22 54 C21.34 53.67 20.68 53.34 20 53 C20 54.32 20 55.64 20 57 C10.63476683 52.90780029 2.748022 40.24385368 -1.5 31.3125 C-5.05072796 21.41780474 -3.87438903 9.59372523 0 0 Z " fill="#69A02E" transform="translate(82,24)"/>
<path d="M0 0 C3.24394395 2.09054166 4.93384184 3.41646409 6.8125 6.8125 C7.67244099 11.1789245 7.82787954 15.04593058 5.56640625 18.98046875 C3.10412264 21.95854244 1.53042767 23.57319078 -2.1875 24.8125 C-8.60300928 25.34712577 -11.98550755 24.68849437 -17.1875 20.8125 C-20.88456035 15.80357953 -20.50563334 10.77455451 -20.1875 4.8125 C-19.5275 4.8125 -18.8675 4.8125 -18.1875 4.8125 C-17.56875 4.19375 -16.95 3.575 -16.3125 2.9375 C-11.469045 -1.905955 -6.44995648 -2.40292496 0 0 Z M-10.5 7.375 C-12.55426764 9.82427362 -12.55426764 9.82427362 -12.0625 13.5 C-11.77375 14.593125 -11.485 15.68625 -11.1875 16.8125 C-8.35866253 18.22691874 -6.31373255 18.13150332 -3.1875 17.8125 C-1.08985835 16.29355194 -1.08985835 16.29355194 -0.1875 13.8125 C-0.18075074 10.68569901 -0.18075074 10.68569901 -1.1875 7.8125 C-4.8122448 5.39600347 -6.78123683 4.86232219 -10.5 7.375 Z " fill="#118440" transform="translate(102.1875,132.1875)"/>
<path d="M0 0 C1.5625 1.0625 1.5625 1.0625 3 3 C3.16466335 11.06850435 -1.9158011 18.03659265 -7.25 23.75 C-16.38394865 32.31687423 -27.19249795 36.29100101 -39.66796875 36.16796875 C-44.49463005 35.82031978 -49.24786647 34.88706493 -54 34 C-54 33.34 -54 32.68 -54 32 C-52.99582031 31.97421875 -51.99164063 31.9484375 -50.95703125 31.921875 C-36.81215009 31.40204714 -25.05349026 29.05349026 -14.75 18.75 C-11.28206112 13.30038177 -9.12237252 7.34877384 -8 1 C-7.505 2.98 -7.505 2.98 -7 5 C-4.69 4.34 -2.38 3.68 0 3 C0 2.01 0 1.02 0 0 Z " fill="#2C7A3F" transform="translate(138,92)"/>
<path d="M0 0 C2.371875 -0.103125 4.74375 -0.20625 7.1875 -0.3125 C7.92508545 -0.35802002 8.6626709 -0.40354004 9.42260742 -0.45043945 C13.35706746 -0.53279479 14.85553699 -0.11807443 17.9296875 2.39453125 C20.9108206 6.14625913 20.9108206 6.14625913 21 9 C20.36971413 10.68076231 19.70211894 12.34795544 19 14 C18.69469561 17.79403178 18.69469561 17.79403178 20.0625 20.0625 C21 22 21 22 20 25 C16.6875 24.8125 16.6875 24.8125 13 24 C11.07828158 21.58235424 10 20.11532786 10 17 C9.34 17 8.68 17 8 17 C8 19.31 8 21.62 8 24 C5.36 24 2.72 24 0 24 C0 16.08 0 8.16 0 0 Z M8 7 C8 8.32 8 9.64 8 11 C9.65 10.67 11.3 10.34 13 10 C13 9.01 13 8.02 13 7 C11.35 7 9.7 7 8 7 Z " fill="#0D823C" transform="translate(61,132)"/>
<path d="M0 0 C2.31 0 4.62 0 7 0 C8 1 8 1 8.0625 4.5625 C8.041875 5.696875 8.02125 6.83125 8 8 C9.98 8 11.96 8 14 8 C14 5.36 14 2.72 14 0 C16.31 0 18.62 0 21 0 C21 7.92 21 15.84 21 24 C18.69 24 16.38 24 14 24 C14 21.03 14 18.06 14 15 C12.02 15.33 10.04 15.66 8 16 C8 18.64 8 21.28 8 24 C5.36 24 2.72 24 0 24 C0 16.08 0 8.16 0 0 Z " fill="#8CBF36" transform="translate(171,132)"/>
<path d="M0 0 C2.05078125 0.03255208 4.1015625 0.06510417 6.15234375 0.09765625 C7.65506834 3.90908802 9.15406688 7.72197412 10.65234375 11.53515625 C11.08160156 12.62376953 11.51085937 13.71238281 11.953125 14.83398438 C12.56220703 16.38569336 12.56220703 16.38569336 13.18359375 17.96875 C13.56064453 18.9270874 13.93769531 19.8854248 14.32617188 20.87280273 C15.15234375 23.09765625 15.15234375 23.09765625 15.15234375 24.09765625 C12.51234375 24.09765625 9.87234375 24.09765625 7.15234375 24.09765625 C6.82234375 23.10765625 6.49234375 22.11765625 6.15234375 21.09765625 C4.85296875 21.22140625 3.55359375 21.34515625 2.21484375 21.47265625 C1.11849609 21.57707031 1.11849609 21.57707031 0 21.68359375 C-0.60972656 21.82023437 -1.21945313 21.956875 -1.84765625 22.09765625 C-2.17765625 22.75765625 -2.50765625 23.41765625 -2.84765625 24.09765625 C-5.49626052 24.69121239 -8.13962947 24.83974894 -10.84765625 25.09765625 C-10.24314041 21.75807485 -9.42812589 18.67103449 -8.25390625 15.48828125 C-7.94582031 14.65167969 -7.63773438 13.81507813 -7.3203125 12.953125 C-6.99933594 12.09332031 -6.67835937 11.23351562 -6.34765625 10.34765625 C-5.86619141 9.03474609 -5.86619141 9.03474609 -5.375 7.6953125 C-2.57396905 0.13604488 -2.57396905 0.13604488 0 0 Z M1.15234375 9.09765625 C1.48234375 10.74765625 1.81234375 12.39765625 2.15234375 14.09765625 C2.48234375 13.10765625 2.81234375 12.11765625 3.15234375 11.09765625 C2.49234375 10.43765625 1.83234375 9.77765625 1.15234375 9.09765625 Z M0.15234375 13.09765625 C1.15234375 15.09765625 1.15234375 15.09765625 1.15234375 15.09765625 Z " fill="#138241" transform="translate(19.84765625,131.90234375)"/>
<path d="M0 0 C2.21364727 2.21364727 2.6341439 3.57373339 3.625 6.5 C6.32360914 13.44641982 10.84789063 18.76847702 16.015625 24.06640625 C20.44305937 28.65943364 23.62319674 33.43661136 26.5625 39.0625 C26.92150391 39.72330566 27.28050781 40.38411133 27.65039062 41.06494141 C30.1788642 46.15595482 30.30857412 49.45303538 29 55 C27.80078125 57.20703125 27.80078125 57.20703125 26.3125 58.8125 C25.83425781 59.35519531 25.35601562 59.89789063 24.86328125 60.45703125 C19.69357019 64.73802888 15.07983862 65.49497045 8.625 65.375 C7.49880249 65.36629883 7.49880249 65.36629883 6.34985352 65.35742188 C1.00795832 65.23190797 -3.19318262 64.45454504 -8 62 C-6.125 60.9375 -6.125 60.9375 -4 60 C-3.34 60.33 -2.68 60.66 -2 61 C3.86841043 61.86300153 9.15817263 62.13986876 15 61 C17.375 61.4375 17.375 61.4375 19 62 C19.268125 61.360625 19.53625 60.72125 19.8125 60.0625 C21 58 21 58 24 57 C24.08202053 54.9798648 24.13964668 52.95873321 24.1875 50.9375 C24.22230469 49.81214844 24.25710937 48.68679687 24.29296875 47.52734375 C23.74437466 40.92227094 20.55660372 36.008766 16.8125 30.6875 C16.42175293 30.1298999 16.03100586 29.5722998 15.62841797 28.99780273 C13.08714713 25.41039762 10.40781402 21.9677179 7.625 18.5625 C2.68518326 12.46383957 0.66891817 7.75945081 0 0 Z " fill="#11428E" transform="translate(79,50)"/>
<path d="M0 0 C0.33 0.66 0.66 1.32 1 2 C1.99 2 2.98 2 4 2 C6.59637396 13.09359782 6.17136736 22.37481899 2 33 C1.690625 32.360625 1.38125 31.72125 1.0625 31.0625 C0.1654837 29.06389179 0.1654837 29.06389179 -1 28 C-1.99 28.99 -2.98 29.98 -4 31 C-5.16857663 27.49427012 -4.45833487 25.73504479 -3.51171875 22.26464844 C-2.4684122 17.64741965 -2.56183003 12.89816272 -2.43359375 8.18359375 C-2.20319305 2.20319305 -2.20319305 2.20319305 0 0 Z " fill="#6C9D43" transform="translate(140,65)"/>
<path d="M0 0 C3.2437025 2.43277687 4.68700289 3.91654848 5.8125 7.8125 C5.874375 8.534375 5.93625 9.25625 6 10 C2.625 10.1875 2.625 10.1875 -1 10 C-1.66 9.01 -2.32 8.02 -3 7 C-5.31 7.33 -7.62 7.66 -10 8 C-10.17015625 8.56589844 -10.3403125 9.13179687 -10.515625 9.71484375 C-10.75796875 10.44832031 -11.0003125 11.18179688 -11.25 11.9375 C-11.59804687 13.03384766 -11.59804687 13.03384766 -11.953125 14.15234375 C-13 16 -13 16 -15.109375 16.75390625 C-16.04523438 16.87572266 -16.04523438 16.87572266 -17 17 C-17 15.68 -17 14.36 -17 13 C-17.66 13 -18.32 13 -19 13 C-19 12.34 -19 11.68 -19 11 C-18.34 11 -17.68 11 -17 11 C-17.0825 10.0925 -17.165 9.185 -17.25 8.25 C-17 5 -17 5 -15.25 2.75 C-10.14492578 -1.22061328 -6.22057578 -1.71869741 0 0 Z " fill="#6CB73F" transform="translate(164,132)"/>
<path d="M0 0 C0.66 0 1.32 0 2 0 C2.37125 0.99 2.7425 1.98 3.125 3 C7.18556335 12.3132187 14.82713841 19.05687419 22 26 C21.67 26.66 21.34 27.32 21 28 C20.34 27.67 19.68 27.34 19 27 C19 28.32 19 29.64 19 31 C10.19523949 27.15270247 1.54205853 14.68911234 -2 6 C-1.47368421 1.47368421 -1.47368421 1.47368421 0 0 Z " fill="#448533" transform="translate(83,50)"/>
<path d="M0 0 C4.62 0 9.24 0 14 0 C14 7.17241379 14 7.17241379 11 11 C6.75003492 14.52139964 3.28127753 14.26853954 -2 14 C-2 10.88742431 -1.82638376 8.89234315 -1 6 C0.65 6 2.3 6 4 6 C2.68 5.34 1.36 4.68 0 4 C0 2.68 0 1.36 0 0 Z " fill="#147A40" transform="translate(45,143)"/>
<path d="M0 0 C1.86527549 2.79791324 2.64913993 4.75747672 3.5625 7.9375 C3.81128906 8.79214844 4.06007813 9.64679687 4.31640625 10.52734375 C4.91103037 12.67818414 5.47183744 14.83201845 6 17 C5.22914062 16.98839844 4.45828125 16.97679688 3.6640625 16.96484375 C2.66117188 16.95582031 1.65828125 16.94679688 0.625 16.9375 C-0.87160156 16.92009766 -0.87160156 16.92009766 -2.3984375 16.90234375 C-4.98432453 16.81993398 -4.98432453 16.81993398 -7 18 C-6.34 14.37 -5.68 10.74 -5 7 C-6.98 7.99 -8.96 8.98 -11 10 C-10.01 7.03 -9.02 4.06 -8 1 C-7.34 1.99 -6.68 2.98 -6 4 C-4.02 2.68 -2.04 1.36 0 0 Z " fill="#44B8EB" transform="translate(72,51)"/>
<path d="M0 0 C0 1.32 0 2.64 0 4 C-12.06784361 8.86948076 -22.41294005 8.34958452 -35 6 C-35 5.34 -35 4.68 -35 4 C-33.45892578 3.94392578 -33.45892578 3.94392578 -31.88671875 3.88671875 C-24.38295623 3.55166449 -17.63333082 2.881473 -10.41796875 0.6328125 C-6.85304389 -0.30017268 -3.66409542 -0.20740163 0 0 Z " fill="#1E7241" transform="translate(119,120)"/>
<path d="M0 0 C2.21364727 2.21364727 2.6341439 3.57373339 3.625 6.5 C6.35749089 13.53363395 10.99305465 18.76781529 16.0859375 24.2421875 C21.02655004 29.56139104 25.41537258 35.13289369 28 42 C27.71875 43.99609375 27.71875 43.99609375 27 46 C26.63711344 47.74821262 26.28322765 49.49831326 25.9375 51.25 C25.76089844 52.14203125 25.58429688 53.0340625 25.40234375 53.953125 C25.26957031 54.62859375 25.13679688 55.3040625 25 56 C24.03551718 52.65398651 24.01343102 49.77899867 24.2578125 46.29296875 C23.59211164 40.3722656 20.16140576 35.44709527 16.8125 30.6875 C16.42175293 30.1298999 16.03100586 29.5722998 15.62841797 28.99780273 C13.08714713 25.41039762 10.40781402 21.9677179 7.625 18.5625 C2.68518326 12.46383957 0.66891817 7.75945081 0 0 Z " fill="#0661A2" transform="translate(79,50)"/>
<path d="M0 0 C2 3 2 3 3.25 6.1875 C6.50909942 13.85692302 11.42461452 19.4269943 19 23 C22.5168477 24.14712629 26.07409559 24.30518669 29.75 24.5625 C30.92046875 24.64628906 32.0909375 24.73007813 33.296875 24.81640625 C34.63492188 24.90728516 34.63492188 24.90728516 36 25 C36 25.33 36 25.66 36 26 C32.37 26.33 28.74 26.66 25 27 C25 27.33 25 27.66 25 28 C26.98 28.33 28.96 28.66 31 29 C31 29.66 31 30.32 31 31 C20.55854717 29.71148029 12.18352653 25.51906091 5.47265625 17.28515625 C2.05597688 11.98341241 0 6.3007171 0 0 Z " fill="#22714B" transform="translate(56,90)"/>
<path d="M0 0 C5.21200669 4.31851983 7.70423955 9.68910106 10 16 C10 16.99 10 17.98 10 19 C6 19 6 19 4 18 C3.375 15.9375 3.375 15.9375 3 14 C2.01 14 1.02 14 0 14 C-1.32 10.7 -2.64 7.4 -4 4 C-2.68 2.68 -1.36 1.36 0 0 Z " fill="#9CBF4C" transform="translate(133,48)"/>
<path d="M0 0 C2.31 0 4.62 0 7 0 C7.21206984 11.71096796 7.21206984 11.71096796 6 17 C5.01 17.66 4.02 18.32 3 19 C3 18.34 3 17.68 3 17 C2.34 17 1.68 17 1 17 C1 16.01 1 15.02 1 14 C-0.32 13.67 -1.64 13.34 -3 13 C-2.34 12.01 -1.68 11.02 -1 10 C-0.54398739 7.49103314 -0.54398739 7.49103314 -0.375 4.8125 C-0.30023438 3.91144531 -0.22546875 3.01039063 -0.1484375 2.08203125 C-0.09945312 1.39496094 -0.05046875 0.70789063 0 0 Z " fill="#69B52F" transform="translate(185,132)"/>
<path d="M0 0 C0.33 0 0.66 0 1 0 C1.33 4.29 1.66 8.58 2 13 C2.99 12.67 3.98 12.34 5 12 C5 12.66 5 13.32 5 14 C5.66 14 6.32 14 7 14 C7 12.35 7 10.7 7 9 C7.33 9.99 7.66 10.98 8 12 C10.97 12 13.94 12 17 12 C17 13.98 17 15.96 17 18 C11.39 18 5.78 18 0 18 C0 12.06 0 6.12 0 0 Z " fill="#97C640" transform="translate(129,138)"/>
<path d="M0 0 C0 2.97716214 -0.49255341 4.71489428 -1.4375 7.5 C-2.95073516 12.3013396 -3.45927372 16.83218684 -3.69140625 21.84765625 C-3.79324219 22.55792969 -3.89507812 23.26820312 -4 24 C-4.66 24.33 -5.32 24.66 -6 25 C-6.66 23.68 -7.32 22.36 -8 21 C-8.33 21.66 -8.66 22.32 -9 23 C-10.97522846 24.04808041 -12.97481509 25.0520411 -15 26 C-13.64366852 21.37456188 -11.74729476 17.63957273 -9.1875 13.5625 C-8.83365234 12.99700439 -8.47980469 12.43150879 -8.11523438 11.84887695 C-5.55314127 7.78581263 -2.8668862 3.85237833 0 0 Z " fill="#119FD8" transform="translate(83,21)"/>
<path d="M0 0 C1.5625 1.0625 1.5625 1.0625 3 3 C2.89033463 8.70259912 0.96395102 12.31504516 -2 17 C-4 14 -4 14 -4 10 C-6.31 11.32 -8.62 12.64 -11 14 C-10.01 9.71 -9.02 5.42 -8 1 C-7.67 2.32 -7.34 3.64 -7 5 C-4.69 4.34 -2.38 3.68 0 3 C0 2.01 0 1.02 0 0 Z " fill="#4C8945" transform="translate(138,92)"/>
<path d="M0 0 C1.98 0 3.96 0 6 0 C6 2.97 6 5.94 6 9 C7.65 9 9.3 9 11 9 C7.82550528 12.53729411 5.83290164 14.5972582 1 15 C0.67 15 0.34 15 0 15 C0 10.05 0 5.1 0 0 Z " fill="#66B32F" transform="translate(172,132)"/>
<path d="M0 0 C0.33 0.99 0.66 1.98 1 3 C3.97 3 6.94 3 10 3 C10.33 2.01 10.66 1.02 11 0 C11 1.65 11 3.3 11 5 C10.34 5 9.68 5 9 5 C9 5.66 9 6.32 9 7 C9.66 7 10.32 7 11 7 C11.33 7.99 11.66 8.98 12 10 C15.0109362 7.9927092 15.63016497 7.16115776 17 4 C17.33 5.98 17.66 7.96 18 10 C20.31 10.66 22.62 11.32 25 12 C24.401875 12.28875 23.80375 12.5775 23.1875 12.875 C20.80672208 14.04742026 20.80672208 14.04742026 18 16 C15.625 16.625 15.625 16.625 13 16 C10.13098728 12.63066899 8 9.47915912 8 5 C7.01 5.33 6.02 5.66 5 6 C2.3125 5.0625 2.3125 5.0625 0 4 C0 2.68 0 1.36 0 0 Z " fill="#8BBF38" transform="translate(136,138)"/>
<path d="M0 0 C4.29 0 8.58 0 13 0 C13 1.65 13 3.3 13 5 C10.36 5 7.72 5 5 5 C5 5.99 5 6.98 5 8 C3.02 8.33 1.04 8.66 -1 9 C-0.67 6.03 -0.34 3.06 0 0 Z " fill="#5FB22F" transform="translate(131,133)"/>
<path d="M0 0 C5.28582944 4.66760377 8.01422087 12.19908766 8.9375 19.0625 C8.958125 20.361875 8.97875 21.66125 9 23 C8.34 23.66 7.68 24.32 7 25 C7.020625 25.804375 7.04125 26.60875 7.0625 27.4375 C7 30 7 30 5.49609375 31.66015625 C5.00238281 32.10230469 4.50867188 32.54445312 4 33 C4.03480469 31.33710937 4.03480469 31.33710937 4.0703125 29.640625 C4.08907577 28.17709008 4.10727537 26.71354786 4.125 25.25 C4.14175781 24.52039063 4.15851563 23.79078125 4.17578125 23.0390625 C4.21069605 19.1984345 4.23074327 16.21351828 2 13 C1.34 12.34 0.68 11.68 0 11 C0.66 10.67 1.32 10.34 2 10 C1.7834375 8.9171875 1.7834375 8.9171875 1.5625 7.8125 C1.04166667 5.20833333 0.52083333 2.60416667 0 0 Z " fill="#47863A" transform="translate(117,59)"/>
<path d="M0 0 C0.33 0 0.66 0 1 0 C1 3.63 1 7.26 1 11 C2.32 10.67 3.64 10.34 5 10 C5.66 6.7 6.32 3.4 7 0 C7.33 0 7.66 0 8 0 C8 5.94 8 11.88 8 18 C5.36 18 2.72 18 0 18 C0 12.06 0 6.12 0 0 Z " fill="#97C24C" transform="translate(115,138)"/>
<path d="M0 0 C0.66 0 1.32 0 2 0 C2.391875 0.99 2.78375 1.98 3.1875 3 C5.0111547 7.28734207 7.44706324 11.11509624 10 15 C8.35 15.66 6.7 16.32 5 17 C-2 7.36697248 -2 7.36697248 -2 2 C-1.34 1.34 -0.68 0.68 0 0 Z " fill="#4D8C34" transform="translate(83,50)"/>
<path d="M0 0 C1.29671923 2.59343846 0.78511203 3.58082715 0.125 6.375 C-1.13929469 12.21809168 -1.61104812 18.04289497 -2 24 C-2.33 24 -2.66 24 -3 24 C-3.66 20.04 -4.32 16.08 -5 12 C-5.99 12.33 -6.98 12.66 -8 13 C-7.5250019 8.01251998 -6.10772305 4.93035563 -3 1 C-2.01 0.67 -1.02 0.34 0 0 Z " fill="#84B42B" transform="translate(91,13)"/>
<path d="M0 0 C3 1 3 1 4.68359375 3.984375 C5.27824401 5.23486994 5.86249769 6.4903497 6.4375 7.75 C8.52259245 12.26691937 10.71566029 16.21759559 14 20 C11 18.5 11 18.5 8 17 C8 16.34 8 15.68 8 15 C7.34 15 6.68 15 6 15 C6 14.34 6 13.68 6 13 C5.34 13 4.68 13 4 13 C1.1598467 9.62365257 -1.09225154 6.47602466 -0.8125 2 C-0.544375 1.34 -0.27625 0.68 0 0 Z " fill="#5C952E" transform="translate(87,45)"/>
<path d="M0 0 C4.79086212 4.29667577 6.72321813 10.12045357 7.17626953 16.47070312 C7.34436107 22.31901995 7.20611674 28.15430011 7 34 C4.86765605 30.13625208 4.72222489 26.77189738 4.625 22.4375 C4.37916852 16.14550426 3.35363583 10.97837794 0.83984375 5.13671875 C0 3 0 3 0 0 Z " fill="#4D8A37" transform="translate(122,63)"/>
<path d="M0 0 C2 3 2 3 3.25 6.1875 C4.80847155 9.95980036 7.05806739 12.93259819 9.59765625 16.10546875 C10.9961837 17.99484428 12.0134979 19.87123231 13 22 C10 22 10 22 8.28125 20.34765625 C3.29714936 13.95357977 0 8.24227467 0 0 Z " fill="#398357" transform="translate(56,90)"/>
<path d="M0 0 C6.41688675 -0.10349817 12.62694402 0.25492456 19 1 C19.33 1.99 19.66 2.98 20 4 C13.13484138 4.26404456 6.74153283 3.25841946 0 2 C0 1.34 0 0.68 0 0 Z " fill="#347851" transform="translate(84,124)"/>
<path d="M0 0 C1.8125 0.0625 1.8125 0.0625 4 1 C5.81278756 4.4960903 7 7.03981755 7 11 C3 11 3 11 1 10 C0.33203125 8.22265625 0.33203125 8.22265625 -0.1875 6.0625 C-0.36667969 5.35222656 -0.54585937 4.64195313 -0.73046875 3.91015625 C-1 2 -1 2 0 0 Z " fill="#90B645" transform="translate(136,56)"/>
<path d="M0 0 C3.96 0 7.92 0 12 0 C12 0.33 12 0.66 12 1 C8.7 1 5.4 1 2 1 C2.185625 2.258125 2.37125 3.51625 2.5625 4.8125 C3.00732761 7.82744268 2.99843846 9.00468461 2 12 C1.77674186 14.05893621 1.59294241 16.12233653 1.4375 18.1875 C1.35371094 19.27417969 1.26992188 20.36085937 1.18359375 21.48046875 C1.12300781 22.31191406 1.06242187 23.14335937 1 24 C0.67 24 0.34 24 0 24 C0 16.08 0 8.16 0 0 Z " fill="#2F8F55" transform="translate(61,132)"/>
<path d="M0 0 C2 1 2 1 2.6328125 2.84765625 C2.87644531 3.94400391 2.87644531 3.94400391 3.125 5.0625 C3.29257813 5.79597656 3.46015625 6.52945313 3.6328125 7.28515625 C3.75398438 7.85105469 3.87515625 8.41695312 4 9 C3.22914062 8.98839844 2.45828125 8.97679688 1.6640625 8.96484375 C0.66117188 8.95582031 -0.34171875 8.94679688 -1.375 8.9375 C-2.87160156 8.92009766 -2.87160156 8.92009766 -4.3984375 8.90234375 C-6.98432453 8.81993398 -6.98432453 8.81993398 -9 10 C-8.67 7.36 -8.34 4.72 -8 2 C-7.01 3.485 -7.01 3.485 -6 5 C-2.41642759 5.25015873 -2.41642759 5.25015873 1 5 C0.67 3.35 0.34 1.7 0 0 Z " fill="#12ABE3" transform="translate(74,59)"/>
<path d="M0 0 C2.00130916 2.54712074 3.85727656 4.9527375 5 8 C4.71083308 9.34360388 4.36856772 10.67597329 4 12 C3.63711344 13.74821262 3.28322765 15.49831326 2.9375 17.25 C2.76089844 18.14203125 2.58429688 19.0340625 2.40234375 19.953125 C2.26957031 20.62859375 2.13679688 21.3040625 2 22 C1.03144817 18.61382267 1.03591214 15.61260916 1.1015625 12.09375 C0.94779239 8.92372003 -0.10841101 6.03140257 -1 3 C-0.67 2.01 -0.34 1.02 0 0 Z " fill="#02549E" transform="translate(102,84)"/>
<path d="M0 0 C0 4.24645065 -1.81750806 6.38524772 -4 10 C-4.33 9.01 -4.66 8.02 -5 7 C-6.98 7.99 -8.96 8.98 -11 10 C-10.01 7.03 -9.02 4.06 -8 1 C-7.34 1.99 -6.68 2.98 -6 4 C-4.02 2.68 -2.04 1.36 0 0 Z " fill="#099DDD" transform="translate(72,51)"/>
<path d="M0 0 C0.66 0.33 1.32 0.66 2 1 C2 2.32 2 3.64 2 5 C-0.40545638 6.20272819 -1.94996953 6.10071472 -4.625 6.0625 C-5.85089844 6.04896484 -5.85089844 6.04896484 -7.1015625 6.03515625 C-8.04128906 6.01775391 -8.04128906 6.01775391 -9 6 C-9.33 5.34 -9.66 4.68 -10 4 C-3.375 1.125 -3.375 1.125 0 0 Z " fill="#8EBE24" transform="translate(161,150)"/>
<path d="M0 0 C2.0625 2.1875 2.0625 2.1875 4 5 C3.75 7.8125 3.75 7.8125 3 10 C1.68 10.33 0.36 10.66 -1 11 C-1 9.68 -1 8.36 -1 7 C-1.66 7 -2.32 7 -3 7 C-3 6.34 -3 5.68 -3 5 C-2.34 5 -1.68 5 -1 5 C-0.67 3.35 -0.34 1.7 0 0 Z M2 1 C2.99 1.495 2.99 1.495 4 2 C3.01 2.495 3.01 2.495 2 3 C2 2.34 2 1.68 2 1 Z " fill="#6CB52C" transform="translate(148,138)"/>
<path d="M0 0 C0 3.57476459 -0.92087288 6.28150502 -2 9.6875 C-2.556875 11.45673828 -2.556875 11.45673828 -3.125 13.26171875 C-3.41375 14.16535156 -3.7025 15.06898437 -4 16 C-4.99 15.34 -5.98 14.68 -7 14 C-6.69723124 7.94462479 -3.72245962 4.48516542 0 0 Z " fill="#22A7D7" transform="translate(83,21)"/>
<path d="M0 0 C0.66 0 1.32 0 2 0 C2.99 2.97 3.98 5.94 5 9 C3 10 3 10 0.9375 9.4375 C-1 8 -1 8 -1.875 5 C-1.91625 4.01 -1.9575 3.02 -2 2 C-1.34 1.34 -0.68 0.68 0 0 Z " fill="#579331" transform="translate(83,50)"/>
<path d="M0 0 C0.33 0.99 0.66 1.98 1 3 C3.97 3 6.94 3 10 3 C10 4.98 10 6.96 10 9 C7.36 9 4.72 9 2 9 C2.66 7.68 3.32 6.36 4 5 C5.65 5.33 7.3 5.66 9 6 C9 5.34 9 4.68 9 4 C6.03 4 3.06 4 0 4 C0 2.68 0 1.36 0 0 Z " fill="#94C033" transform="translate(136,147)"/>
<path d="M0 0 C0.845625 0.495 1.69125 0.99 2.5625 1.5 C1.5725 1.83 0.5825 2.16 -0.4375 2.5 C-0.7675 2.17 -1.0975 1.84 -1.4375 1.5 C-5.85243613 0.97351699 -10.49703599 0.44891533 -14.5 2.6171875 C-16.31578128 4.10677784 -16.31578128 4.10677784 -18.4375 6.5 C-17.499313 3.02870808 -16.77728548 1.72915765 -13.75 -0.3125 C-8.5892649 -2.16257485 -5.04239654 -2.20031849 0 0 Z " fill="#389D5E" transform="translate(53.4375,132.5)"/>
<path d="M0 0 C2.35716404 2.15454249 3.78966144 4.19719874 5.1875 7.0625 C5.53167969 7.75472656 5.87585938 8.44695312 6.23046875 9.16015625 C7 11 7 11 7 13 C5.1875 13.6875 5.1875 13.6875 3 14 C1.25 12.5625 1.25 12.5625 0 11 C0.66 10.67 1.32 10.34 2 10 C1.7834375 8.9171875 1.7834375 8.9171875 1.5625 7.8125 C1.04166667 5.20833333 0.52083333 2.60416667 0 0 Z " fill="#5F963D" transform="translate(117,59)"/>
<path d="M0 0 C0.99 0 1.98 0 3 0 C2.67 1.32 2.34 2.64 2 4 C1.34 4 0.68 4 0 4 C0 4.66 0 5.32 0 6 C-2.97 6.66 -5.94 7.32 -9 8 C-9 7.34 -9 6.68 -9 6 C-7.28515625 4.74609375 -7.28515625 4.74609375 -5.0625 3.4375 C-2.37294547 1.9249593 -2.37294547 1.9249593 0 0 Z " fill="#0D683A" transform="translate(105,108)"/>
<path d="M0 0 C0.33 0 0.66 0 1 0 C1.33 2.31 1.66 4.62 2 7 C1.34 7 0.68 7 0 7 C-0.99 10.96 -1.98 14.92 -3 19 C-3.33 19 -3.66 19 -4 19 C-3.59060025 12.23784552 -2.43046191 6.32837252 0 0 Z " fill="#269DD2" transform="translate(60,61)"/>
<path d="M0 0 C0.66 0 1.32 0 2 0 C2 2.31 2 4.62 2 7 C1.01 6.34 0.02 5.68 -1 5 C-1.33 5.66 -1.66 6.32 -2 7 C-2.66 7 -3.32 7 -4 7 C-4.33 7.99 -4.66 8.98 -5 10 C-5.66 10 -6.32 10 -7 10 C-5.32598022 6.04322598 -2.86850715 3.15535787 0 0 Z " fill="#A0C640" transform="translate(96,4)"/>
<path d="M0 0 C0.33 0 0.66 0 1 0 C1 2.31 1 4.62 1 7 C2.98 7 4.96 7 7 7 C6.3125 9.4375 6.3125 9.4375 5 12 C2.375 12.8125 2.375 12.8125 0 13 C0.66 12.67 1.32 12.34 2 12 C2.33 11.01 2.66 10.02 3 9 C2.01 8.67 1.02 8.34 0 8 C0 5.36 0 2.72 0 0 Z " fill="#92BC68" transform="translate(178,133)"/>
<path d="M0 0 C2.97 0 5.94 0 9 0 C8.34 1.65 7.68 3.3 7 5 C6.67 4.34 6.34 3.68 6 3 C4.02 3 2.04 3 0 3 C0 2.01 0 1.02 0 0 Z " fill="#086731" transform="translate(81,116)"/>
<path d="M0 0 C0.33 0.99 0.66 1.98 1 3 C3.97 3 6.94 3 10 3 C10.33 2.01 10.66 1.02 11 0 C11 1.65 11 3.3 11 5 C10.34 5 9.68 5 9 5 C8.67 5.99 8.34 6.98 8 8 C8 7.01 8 6.02 8 5 C7.01 5.33 6.02 5.66 5 6 C2.3125 5.0625 2.3125 5.0625 0 4 C0 2.68 0 1.36 0 0 Z " fill="#8FC76A" transform="translate(136,138)"/>
<path d="M0 0 C2.56687367 3.8503105 1.83288724 5.58569763 1 10 C0.01 9.34 -0.98 8.68 -2 8 C-2.1875 4.375 -2.1875 4.375 -2 1 C-1.34 0.67 -0.68 0.34 0 0 Z " fill="#064D8C" transform="translate(107,94)"/>
<path d="M0 0 C0.66 0.33 1.32 0.66 2 1 C2.625 3.5625 2.625 3.5625 3 6 C-1.455 5.01 -1.455 5.01 -6 4 C-6 3.34 -6 2.68 -6 2 C-6.99 1.67 -7.98 1.34 -9 1 C-7.68 1 -6.36 1 -5 1 C-5 1.66 -5 2.32 -5 3 C-3.35 2.67 -1.7 2.34 0 2 C0 1.34 0 0.68 0 0 Z " fill="#42835B" transform="translate(57,137)"/>
<path d="M0 0 C0.66 0 1.32 0 2 0 C3.6875 2.375 3.6875 2.375 5 5 C4.67 5.66 4.34 6.32 4 7 C2.35 7 0.7 7 -1 7 C-0.67 4.69 -0.34 2.38 0 0 Z " fill="#8BB635" transform="translate(111,50)"/>
<path d="M0 0 C0.33 0 0.66 0 1 0 C1 7.92 1 15.84 1 24 C0.67 24 0.34 24 0 24 C0 16.08 0 8.16 0 0 Z " fill="#3D9C02" transform="translate(193,132)"/>
<path d="M0 0 C0.66 0 1.32 0 2 0 C2.33 1.98 2.66 3.96 3 6 C-1 6 -1 6 -3 5 C-2.67 4.01 -2.34 3.02 -2 2 C-1.34 2 -0.68 2 0 2 C0 1.34 0 0.68 0 0 Z " fill="#87B042" transform="translate(140,61)"/>
<path d="M0 0 C1.32 0.66 2.64 1.32 4 2 C-0.48074195 5.36055646 -3.60550707 5.27429625 -9 5 C-9 4.67 -9 4.34 -9 4 C-7.88625 3.896875 -6.7725 3.79375 -5.625 3.6875 C-4.42875 3.460625 -3.2325 3.23375 -2 3 C-1.34 2.01 -0.68 1.02 0 0 Z " fill="#A5C74E" transform="translate(163,152)"/>
<path d="M0 0 C6.6 0 13.2 0 20 0 C20 0.33 20 0.66 20 1 C13.4 1 6.8 1 0 1 C0 0.67 0 0.34 0 0 Z " fill="#2CA301" transform="translate(109,130)"/>
<path d="M0 0 C6.93 0.495 6.93 0.495 14 1 C13.67 1.66 13.34 2.32 13 3 C8.71 2.34 4.42 1.68 0 1 C0 0.67 0 0.34 0 0 Z " fill="#2C804C" transform="translate(89,128)"/>
<path d="M0 0 C0.99 0.99 1.98 1.98 3 3 C1.68 5.31 0.36 7.62 -1 10 C-1.66 9.01 -2.32 8.02 -3 7 C-1.625 3.3125 -1.625 3.3125 0 0 Z " fill="#458436" transform="translate(138,92)"/>
<path d="M0 0 C2 4 2 4 2 6 C-0.5 7.625 -0.5 7.625 -3 9 C-2.01 6.03 -1.02 3.06 0 0 Z " fill="#32A8D9" transform="translate(64,52)"/>
<path d="M0 0 C0.33 0 0.66 0 1 0 C1 5.61 1 11.22 1 17 C0.67 17 0.34 17 0 17 C0 11.39 0 5.78 0 0 Z " fill="#83BE3A" transform="translate(124,139)"/>
<path d="M0 0 C1.32 0 2.64 0 4 0 C4 2.64 4 5.28 4 8 C3.67 8 3.34 8 3 8 C3 5.69 3 3.38 3 1 C2.34 1 1.68 1 1 1 C1 2.98 1 4.96 1 7 C0.67 7 0.34 7 0 7 C0 4.69 0 2.38 0 0 Z " fill="#78B82B" transform="translate(180,148)"/>
<path d="M0 0 C0.66 0 1.32 0 2 0 C2 5.28 2 10.56 2 16 C1.67 16 1.34 16 1 16 C0.67 10.72 0.34 5.44 0 0 Z " fill="#92BB6A" transform="translate(112,139)"/>
<path d="M0 0 C0.66 0 1.32 0 2 0 C2 0.66 2 1.32 2 2 C3.32 2.33 4.64 2.66 6 3 C5.67 4.32 5.34 5.64 5 7 C4.34 7 3.68 7 3 7 C0 2.61538462 0 2.61538462 0 0 Z " fill="#0369A8" transform="translate(58,95)"/>
<path d="M0 0 C0.99 0.66 1.98 1.32 3 2 C-1.1196377 3.29243536 -4.66831683 4.26252625 -9 4 C-7.67661368 3.31379969 -6.34050052 2.65213539 -5 2 C-4.154375 1.5875 -3.30875 1.175 -2.4375 0.75 C-1.633125 0.5025 -0.82875 0.255 0 0 Z " fill="#20663B" transform="translate(108,118)"/>
<path d="M0 0 C4.95 0 9.9 0 15 0 C15 0.33 15 0.66 15 1 C10.05 1 5.1 1 0 1 C0 0.67 0 0.34 0 0 Z " fill="#2EA200" transform="translate(130,130)"/>
<path d="M0 0 C4.95 0 9.9 0 15 0 C15 0.33 15 0.66 15 1 C10.05 1 5.1 1 0 1 C0 0.67 0 0.34 0 0 Z " fill="#1A6C3D" transform="translate(84,122)"/>
<path d="M0 0 C2.31 0 4.62 0 7 0 C7 0.66 7 1.32 7 2 C4.69 2 2.38 2 0 2 C0 1.34 0 0.68 0 0 Z " fill="#68B022" transform="translate(163,143)"/>
<path d="M0 0 C0.33 0 0.66 0 1 0 C1 4.29 1 8.58 1 13 C0.67 13 0.34 13 0 13 C0 8.71 0 4.42 0 0 Z " fill="#9DCC5F" transform="translate(127,142)"/>
<path d="M0 0 C0.33 0 0.66 0 1 0 C1 2.31 1 4.62 1 7 C-0.32 7 -1.64 7 -3 7 C-2.67 6.34 -2.34 5.68 -2 5 C-1.34 5.33 -0.68 5.66 0 6 C0 4.02 0 2.04 0 0 Z " fill="#5BAE2C" transform="translate(183,132)"/>
<path d="M0 0 C0.33 0 0.66 0 1 0 C1 3.3 1 6.6 1 10 C0.67 10 0.34 10 0 10 C0 6.7 0 3.4 0 0 Z " fill="#0F681E" transform="translate(110,139)"/>
<path d="M0 0 C0.33 0 0.66 0 1 0 C1 2.31 1 4.62 1 7 C-1 4 -1 4 -0.625 1.8125 C-0.41875 1.214375 -0.2125 0.61625 0 0 Z " fill="#327C54" transform="translate(59,149)"/>
<path d="M0 0 C2.64 0 5.28 0 8 0 C8 0.33 8 0.66 8 1 C5.36 1 2.72 1 0 1 C0 0.67 0 0.34 0 0 Z " fill="#246D46" transform="translate(92,158)"/>
<path d="M0 0 C2.64 0 5.28 0 8 0 C8 0.33 8 0.66 8 1 C5.36 1 2.72 1 0 1 C0 0.67 0 0.34 0 0 Z " fill="#8ABD1F" transform="translate(135,157)"/>
<path d="M0 0 C2.31 0 4.62 0 7 0 C7 0.33 7 0.66 7 1 C4.69 1.33 2.38 1.66 0 2 C0 1.34 0 0.68 0 0 Z " fill="#478062" transform="translate(18,154)"/>
<path d="M0 0 C0.33 0.66 0.66 1.32 1 2 C-1.31 2 -3.62 2 -6 2 C-6 1.67 -6 1.34 -6 1 C-4.02 0.67 -2.04 0.34 0 0 Z " fill="#67A618" transform="translate(144,147)"/>
<path d="M0 0 C0.99 0.495 0.99 0.495 2 1 C1.67 2.98 1.34 4.96 1 7 C0.67 7 0.34 7 0 7 C0 4.69 0 2.38 0 0 Z " fill="#76B549" transform="translate(154,140)"/>
<path d="M0 0 C1.0625 1.875 1.0625 1.875 2 4 C1.67 4.66 1.34 5.32 1 6 C0 5 0 5 -0.0625 2.4375 C-0.041875 1.633125 -0.02125 0.82875 0 0 Z " fill="#157C41" transform="translate(42,142)"/>
<path d="M0 0 C0.33 0 0.66 0 1 0 C1 2.64 1 5.28 1 8 C0.67 8 0.34 8 0 8 C0 5.36 0 2.72 0 0 Z " fill="#1C7E94" transform="translate(54,86)"/>
<path d="M0 0 C2.31 0 4.62 0 7 0 C7 0.33 7 0.66 7 1 C4.69 1 2.38 1 0 1 C0 0.67 0 0.34 0 0 Z " fill="#216A42" transform="translate(43,158)"/>
<path d="M0 0 C2.31 0 4.62 0 7 0 C7 0.33 7 0.66 7 1 C4.69 1 2.38 1 0 1 C0 0.67 0 0.34 0 0 Z " fill="#086C33" transform="translate(74,157)"/>
<path d="M0 0 C0.66 1.32 1.32 2.64 2 4 C1.01 4.495 1.01 4.495 0 5 C0 3.35 0 1.7 0 0 Z " fill="#1E6F3D" transform="translate(70,151)"/>
<path d="M0 0 C2.31 0 4.62 0 7 0 C7 0.33 7 0.66 7 1 C4.69 1 2.38 1 0 1 C0 0.67 0 0.34 0 0 Z " fill="#64B533" transform="translate(138,139)"/>
<path d="M0 0 C0.33 0 0.66 0 1 0 C1 1.98 1 3.96 1 6 C0.34 5.01 -0.32 4.02 -1 3 C-0.67 2.01 -0.34 1.02 0 0 Z " fill="#439A66" transform="translate(59,132)"/>
<path d="M0 0 C2.31 0 4.62 0 7 0 C7 0.33 7 0.66 7 1 C4.69 1 2.38 1 0 1 C0 0.67 0 0.34 0 0 Z " fill="#3DA20A" transform="translate(185,130)"/>
<path d="M0 0 C2.31 0 4.62 0 7 0 C7 0.33 7 0.66 7 1 C4.69 1 2.38 1 0 1 C0 0.67 0 0.34 0 0 Z " fill="#2C9B54" transform="translate(43,129)"/>
<path d="M0 0 C1.98 0 3.96 0 6 0 C6 0.33 6 0.66 6 1 C4.02 1 2.04 1 0 1 C0 0.67 0 0.34 0 0 Z " fill="#99BF29" transform="translate(155,158)"/>
<path d="M0 0 C1.98 0 3.96 0 6 0 C6 0.33 6 0.66 6 1 C4.02 1 2.04 1 0 1 C0 0.67 0 0.34 0 0 Z " fill="#09672E" transform="translate(62,157)"/>
<path d="M0 0 C1.98 0 3.96 0 6 0 C6 0.33 6 0.66 6 1 C4.02 1 2.04 1 0 1 C0 0.67 0 0.34 0 0 Z " fill="#085621" transform="translate(93,148)"/>
<path d="M0 0 C0.66 0.66 1.32 1.32 2 2 C0.35 2 -1.3 2 -3 2 C-2.01 1.34 -1.02 0.68 0 0 Z " fill="#108541" transform="translate(49,140)"/>
<path d="M0 0 C0.33 0 0.66 0 1 0 C1 1.65 1 3.3 1 5 C0.34 4.01 -0.32 3.02 -1 2 C-0.67 1.34 -0.34 0.68 0 0 Z " fill="#66B538" transform="translate(169,132)"/>
<path d="M0 0 C1.98 0 3.96 0 6 0 C6 0.33 6 0.66 6 1 C4.02 1 2.04 1 0 1 C0 0.67 0 0.34 0 0 Z " fill="#2EA000" transform="translate(172,130)"/>
<path d="M0 0 C1.98 0 3.96 0 6 0 C6 0.33 6 0.66 6 1 C4.02 1 2.04 1 0 1 C0 0.67 0 0.34 0 0 Z " fill="#126537" transform="translate(104,128)"/>
<path d="M0 0 C0.33 0 0.66 0 1 0 C1 1.98 1 3.96 1 6 C0.67 6 0.34 6 0 6 C0 4.02 0 2.04 0 0 Z " fill="#1383D6" transform="translate(54,75)"/>
<path d="M0 0 C0.33 0 0.66 0 1 0 C1 1.98 1 3.96 1 6 C0.67 6 0.34 6 0 6 C0 4.02 0 2.04 0 0 Z " fill="#619833" transform="translate(146,71)"/>
<path d="M0 0 C0.33 1.32 0.66 2.64 1 4 C0.34 3.01 -0.32 2.02 -1 1 C-0.67 0.67 -0.34 0.34 0 0 Z " fill="#93C02D" transform="translate(169,152)"/>
<path d="M0 0 C1.65 0 3.3 0 5 0 C5 0.33 5 0.66 5 1 C3.35 1 1.7 1 0 1 C0 0.67 0 0.34 0 0 Z " fill="#80B421" transform="translate(156,148)"/>
<path d="M0 0 C0.33 0 0.66 0 1 0 C1 1.65 1 3.3 1 5 C0.67 5 0.34 5 0 5 C0 3.35 0 1.7 0 0 Z " fill="#0A7E33" transform="translate(91,142)"/>
<path d="M0 0 C0.99 0 1.98 0 3 0 C3 0.66 3 1.32 3 2 C2.01 2 1.02 2 0 2 C0 1.34 0 0.68 0 0 Z " fill="#117832" transform="translate(70,140)"/>
<path d="M0 0 C1.65 0 3.3 0 5 0 C5 0.33 5 0.66 5 1 C3.35 1 1.7 1 0 1 C0 0.67 0 0.34 0 0 Z " fill="#46A21C" transform="translate(156,139)"/>
<path d="M0 0 C1.65 0 3.3 0 5 0 C5 0.33 5 0.66 5 1 C3.35 1 1.7 1 0 1 C0 0.67 0 0.34 0 0 Z " fill="#86C361" transform="translate(156,129)"/>
<path d="M0 0 C0.33 0 0.66 0 1 0 C1 1.65 1 3.3 1 5 C0.67 5 0.34 5 0 5 C0 3.35 0 1.7 0 0 Z " fill="#478933" transform="translate(146,83)"/>
<path d="M0 0 C4 1 4 1 4 1 Z " fill="#13733E" transform="translate(10,157)"/>
<path d="M0 0 C4 1 4 1 4 1 Z " fill="#05882B" transform="translate(94,139)"/>
<path d="M0 0 C1 4 1 4 1 4 Z " fill="#57A834" transform="translate(107,132)"/>
<path d="M0 0 C4 1 4 1 4 1 Z " fill="#178C39" transform="translate(72,130)"/>
<path d="M0 0 C0.99 0.495 0.99 0.495 2 1 C1.67 1.66 1.34 2.32 1 3 C0.67 2.01 0.34 1.02 0 0 Z " fill="#609925" transform="translate(120,60)"/>
<path d="M0 0 C0.99 0.495 0.99 0.495 2 1 C1.67 1.66 1.34 2.32 1 3 C0.67 2.01 0.34 1.02 0 0 Z " fill="#9EC439" transform="translate(122,31)"/>
<path d="M0 0 C3 1 3 1 3 1 Z " fill="#1B6535" transform="translate(100,157)"/>
<path d="M0 0 C3 1 3 1 3 1 Z " fill="#0A6C33" transform="translate(30,157)"/>
<path d="M0 0 C0.66 0.66 1.32 1.32 2 2 C1.34 2 0.68 2 0 2 C0 1.34 0 0.68 0 0 Z " fill="#428460" transform="translate(36,154)"/>
<path d="M0 0 C0.66 0.66 1.32 1.32 2 2 C1.34 2 0.68 2 0 2 C0 1.34 0 0.68 0 0 Z " fill="#95C032" transform="translate(147,153)"/>
<path d="M0 0 C0.33 0.66 0.66 1.32 1 2 C0.34 1.67 -0.32 1.34 -1 1 C-0.67 0.67 -0.34 0.34 0 0 Z " fill="#36875A" transform="translate(81,148)"/>
<path d="M0 0 C0.66 0 1.32 0 2 0 C1.67 0.66 1.34 1.32 1 2 C0.67 1.34 0.34 0.68 0 0 Z " fill="#2A7544" transform="translate(98,140)"/>
<path d="" fill="#0E8A30" transform="translate(0,0)"/>
<path d="M0 0 C3 1 3 1 3 1 Z " fill="#038830" transform="translate(45,139)"/>
<path d="" fill="#1B7B37" transform="translate(0,0)"/>
<path d="M0 0 C3 1 3 1 3 1 Z " fill="#55AF34" transform="translate(161,130)"/>
<path d="M0 0 C3 1 3 1 3 1 Z " fill="#205938" transform="translate(111,127)"/>
<path d="M0 0 C3 1 3 1 3 1 Z " fill="#237147" transform="translate(85,127)"/>
<path d="M0 0 C3 1 3 1 3 1 Z " fill="#2A643E" transform="translate(114,126)"/>
<path d="M0 0 C3 1 3 1 3 1 Z " fill="#12612D" transform="translate(81,121)"/>
<path d="" fill="#367B31" transform="translate(0,0)"/>
<path d="" fill="#335B38" transform="translate(0,0)"/>
<path d="" fill="#22773B" transform="translate(0,0)"/>
<path d="" fill="#2F7D3F" transform="translate(0,0)"/>
<path d="" fill="#1D94CE" transform="translate(0,0)"/>
<path d="" fill="#70A130" transform="translate(0,0)"/>
<path d="" fill="#1791CE" transform="translate(0,0)"/>
<path d="" fill="#72A72A" transform="translate(0,0)"/>
<path d="" fill="#178FD1" transform="translate(0,0)"/>
<path d="" fill="#75A733" transform="translate(0,0)"/>
<path d="M0 0 C2 1 2 1 2 1 Z " fill="#8CB91F" transform="translate(171,157)"/>
<path d="M0 0 C2 1 2 1 2 1 Z " fill="#8EBA1F" transform="translate(162,157)"/>
<path d="M0 0 C2 1 2 1 2 1 Z " fill="#94BB28" transform="translate(152,157)"/>
<path d="M0 0 C2 1 2 1 2 1 Z " fill="#1D7042" transform="translate(89,157)"/>
<path d="M0 0 C2 1 2 1 2 1 Z " fill="#26764B" transform="translate(51,157)"/>
<path d="M0 0 C2 1 2 1 2 1 Z " fill="#1C6F42" transform="translate(40,157)"/>
<path d="M0 0 C2 1 2 1 2 1 Z " fill="#016129" transform="translate(27,157)"/>
<path d="M0 0 C2 1 2 1 2 1 Z " fill="#68A538" transform="translate(164,156)"/>
<path d="M0 0 C2 1 2 1 2 1 Z " fill="#31764F" transform="translate(87,156)"/>
<path d="" fill="#2C724E" transform="translate(0,0)"/>
<path d="" fill="#21754B" transform="translate(0,0)"/>
<path d="" fill="#127137" transform="translate(0,0)"/>
<path d="" fill="#246C36" transform="translate(0,0)"/>
<path d="" fill="#338253" transform="translate(0,0)"/>
<path d="" fill="#05762B" transform="translate(0,0)"/>
<path d="M0 0 C2 1 2 1 2 1 Z " fill="#006121" transform="translate(44,148)"/>
<path d="" fill="#15652B" transform="translate(0,0)"/>
<path d="" fill="#78B52C" transform="translate(0,0)"/>
<path d="" fill="#1B7F38" transform="translate(0,0)"/>
<path d="" fill="#158B4D" transform="translate(0,0)"/>
<path d="" fill="#2E9459" transform="translate(0,0)"/>
<path d="" fill="#0A7523" transform="translate(0,0)"/>
<path d="" fill="#69B02D" transform="translate(0,0)"/>
<path d="" fill="#1C8F44" transform="translate(0,0)"/>
<path d="" fill="#4DA13E" transform="translate(0,0)"/>
<path d="" fill="#2A9752" transform="translate(0,0)"/>
<path d="" fill="#2D9852" transform="translate(0,0)"/>
<path d="" fill="#32983F" transform="translate(0,0)"/>
<path d="" fill="#1C7D2F" transform="translate(0,0)"/>
<path d="" fill="#1D8C31" transform="translate(0,0)"/>
<path d="" fill="#158B2E" transform="translate(0,0)"/>
<path d="" fill="#0D8124" transform="translate(0,0)"/>
<path d="M0 0 C2 1 2 1 2 1 Z " fill="#349147" transform="translate(86,132)"/>
<path d="M0 0 C2 1 2 1 2 1 Z " fill="#277B38" transform="translate(54,132)"/>
<path d="M0 0 C2 1 2 1 2 1 Z " fill="#297F3A" transform="translate(37,132)"/>
<path d="M0 0 C2 1 2 1 2 1 Z " fill="#29883D" transform="translate(102,131)"/>
<path d="M0 0 C2 1 2 1 2 1 Z " fill="#29904B" transform="translate(76,131)"/>
<path d="M0 0 C2 1 2 1 2 1 Z " fill="#3AA519" transform="translate(153,130)"/>
<path d="M0 0 C2 1 2 1 2 1 Z " fill="#178938" transform="translate(90,130)"/>
<path d="M0 0 C2 1 2 1 2 1 Z " fill="#0C8424" transform="translate(50,130)"/>
<path d="M0 0 C2 1 2 1 2 1 Z " fill="#0C8F2E" transform="translate(41,130)"/>
<path d="M0 0 C2 1 2 1 2 1 Z " fill="#2F734D" transform="translate(117,125)"/>
<path d="M0 0 C2 1 2 1 2 1 Z " fill="#1E6B3D" transform="translate(119,124)"/>
<path d="M0 0 C2 1 2 1 2 1 Z " fill="#3D8056" transform="translate(121,123)"/>
<path d="M0 0 C2 1 2 1 2 1 Z " fill="#0F6634" transform="translate(78,120)"/>
<path d="M0 0 C2 1 2 1 2 1 Z " fill="#236D42" transform="translate(75,119)"/>
<path d="M0 0 C2 1 2 1 2 1 Z " fill="#216933" transform="translate(111,118)"/>
<path d="M0 0 C2 1 2 1 2 1 Z " fill="#226630" transform="translate(73,118)"/>
<path d="M0 0 C2 1 2 1 2 1 Z " fill="#1E662C" transform="translate(113,117)"/>
<path d="M0 0 C2 1 2 1 2 1 Z " fill="#377A4C" transform="translate(71,117)"/>
<path d="M0 0 C2 1 2 1 2 1 Z " fill="#3F7247" transform="translate(116,115)"/>
<path d="" fill="#26482C" transform="translate(0,0)"/>
<path d="" fill="#337746" transform="translate(0,0)"/>
<path d="" fill="#388241" transform="translate(0,0)"/>
<path d="" fill="#2B6230" transform="translate(0,0)"/>
<path d="" fill="#438448" transform="translate(0,0)"/>
<path d="" fill="#256F24" transform="translate(0,0)"/>
<path d="" fill="#387F49" transform="translate(0,0)"/>
<path d="" fill="#327C4A" transform="translate(0,0)"/>
<path d="" fill="#478653" transform="translate(0,0)"/>
<path d="" fill="#286924" transform="translate(0,0)"/>
<path d="" fill="#166821" transform="translate(0,0)"/>
<path d="" fill="#458230" transform="translate(0,0)"/>
<path d="" fill="#548837" transform="translate(0,0)"/>
<path d="" fill="#5A8E3E" transform="translate(0,0)"/>
<path d="" fill="#119AD5" transform="translate(0,0)"/>
<path d="" fill="#8EB339" transform="translate(0,0)"/>
<path d="" fill="#27A3D6" transform="translate(0,0)"/>
<path d="" fill="#85AC21" transform="translate(0,0)"/>
<path d="" fill="#1E8ED2" transform="translate(0,0)"/>
<path d="" fill="#91B537" transform="translate(0,0)"/>
<path d="" fill="#9FBE4B" transform="translate(0,0)"/>
<path d="" fill="#9FC240" transform="translate(0,0)"/>
<path d="" fill="#A2C53C" transform="translate(0,0)"/>
<path d="" fill="#9BC13A" transform="translate(0,0)"/>
<path d="" fill="#1F90EA" transform="translate(0,0)"/>
<path d="" fill="#2394DA" transform="translate(0,0)"/>
<path d="" fill="#A5C641" transform="translate(0,0)"/>
<path d="" fill="#22A7D3" transform="translate(0,0)"/>
<path d="" fill="#24A7DC" transform="translate(0,0)"/>
<path d="" fill="#34A6DC" transform="translate(0,0)"/>
<path d="" fill="#90BB37" transform="translate(0,0)"/>
<path d="" fill="#6DAB38" transform="translate(0,0)"/>
<path d="" fill="#74AE49" transform="translate(0,0)"/>
<path d="" fill="#AFCF4D" transform="translate(0,0)"/>
<path d="M0 0 C2 1 2 1 2 1 Z " fill="#6EA900" transform="translate(96,2)"/>
<path d="" fill="#85B60A" transform="translate(0,0)"/>
<path d="" fill="#7FB100" transform="translate(0,0)"/>
<path d="" fill="#7FB400" transform="translate(0,0)"/>
<path d="" fill="#5CA400" transform="translate(0,0)"/>
<path d="" fill="#81B404" transform="translate(0,0)"/>
<path d="" fill="#84BD05" transform="translate(0,0)"/>
<path d="" fill="#84B20B" transform="translate(0,0)"/>
<path d="" fill="#00561E" transform="translate(0,0)"/>
<path d="" fill="#699E00" transform="translate(0,0)"/>
<path d="" fill="#327E55" transform="translate(0,0)"/>
<path d="" fill="#276740" transform="translate(0,0)"/>
<path d="" fill="#13703F" transform="translate(0,0)"/>
<path d="" fill="#14693C" transform="translate(0,0)"/>
<path d="" fill="#A0C848" transform="translate(0,0)"/>
<path d="" fill="#A8CA56" transform="translate(0,0)"/>
<path d="" fill="#00692C" transform="translate(0,0)"/>
<path d="" fill="#39875D" transform="translate(0,0)"/>
<path d="" fill="#004F14" transform="translate(0,0)"/>
<path d="" fill="#35855D" transform="translate(0,0)"/>
<path d="" fill="#87B714" transform="translate(0,0)"/>
<path d="" fill="#2D7D52" transform="translate(0,0)"/>
<path d="" fill="#39825D" transform="translate(0,0)"/>
<path d="" fill="#2E8155" transform="translate(0,0)"/>
<path d="" fill="#25794C" transform="translate(0,0)"/>
<path d="" fill="#33835C" transform="translate(0,0)"/>
<path d="" fill="#307F54" transform="translate(0,0)"/>
<path d="" fill="#003200" transform="translate(0,0)"/>
<path d="" fill="#3F8C63" transform="translate(0,0)"/>
<path d="" fill="#006D2B" transform="translate(0,0)"/>
<path d="" fill="#338057" transform="translate(0,0)"/>
<path d="" fill="#00590F" transform="translate(0,0)"/>
<path d="" fill="#006D2F" transform="translate(0,0)"/>
<path d="" fill="#A6C86C" transform="translate(0,0)"/>
<path d="" fill="#258150" transform="translate(0,0)"/>
<path d="" fill="#178346" transform="translate(0,0)"/>
<path d="" fill="#005E00" transform="translate(0,0)"/>
<path d="" fill="#7FB236" transform="translate(0,0)"/>
<path d="" fill="#159046" transform="translate(0,0)"/>
<path d="" fill="#20924C" transform="translate(0,0)"/>
<path d="" fill="#1C934D" transform="translate(0,0)"/>
<path d="" fill="#008423" transform="translate(0,0)"/>
<path d="" fill="#9DD27E" transform="translate(0,0)"/>
<path d="" fill="#9CCB7C" transform="translate(0,0)"/>
<path d="" fill="#3FA164" transform="translate(0,0)"/>
<path d="" fill="#2E9C4F" transform="translate(0,0)"/>
<path d="" fill="#3CA366" transform="translate(0,0)"/>
<path d="" fill="#3F9C61" transform="translate(0,0)"/>
<path d="" fill="#80C05B" transform="translate(0,0)"/>
<path d="" fill="#8FC569" transform="translate(0,0)"/>
<path d="" fill="#008403" transform="translate(0,0)"/>
<path d="" fill="#44A669" transform="translate(0,0)"/>
<path d="" fill="#049939" transform="translate(0,0)"/>
<path d="" fill="#35A060" transform="translate(0,0)"/>
<path d="" fill="#3FA062" transform="translate(0,0)"/>
<path d="" fill="#90C56E" transform="translate(0,0)"/>
<path d="" fill="#46A40F" transform="translate(0,0)"/>
<path d="" fill="#1D8C49" transform="translate(0,0)"/>
<path d="" fill="#259958" transform="translate(0,0)"/>
<path d="" fill="#249751" transform="translate(0,0)"/>
<path d="" fill="#55A913" transform="translate(0,0)"/>
<path d="" fill="#6CB53C" transform="translate(0,0)"/>
<path d="" fill="#319454" transform="translate(0,0)"/>
<path d="" fill="#2A9252" transform="translate(0,0)"/>
<path d="" fill="#1F8D4C" transform="translate(0,0)"/>
<path d="" fill="#005D00" transform="translate(0,0)"/>
<path d="" fill="#005D00" transform="translate(0,0)"/>
<path d="" fill="#34794D" transform="translate(0,0)"/>
<path d="" fill="#004E09" transform="translate(0,0)"/>
<path d="" fill="#4D8964" transform="translate(0,0)"/>
<path d="" fill="#357B4B" transform="translate(0,0)"/>
<path d="" fill="#156B30" transform="translate(0,0)"/>
<path d="" fill="#015A1F" transform="translate(0,0)"/>
<path d="" fill="#388159" transform="translate(0,0)"/>
<path d="" fill="#005D0D" transform="translate(0,0)"/>
<path d="" fill="#3A8455" transform="translate(0,0)"/>
<path d="" fill="#1E7244" transform="translate(0,0)"/>
<path d="" fill="#2D7443" transform="translate(0,0)"/>
<path d="" fill="#00631B" transform="translate(0,0)"/>
<path d="" fill="#005C1F" transform="translate(0,0)"/>
<path d="" fill="#004805" transform="translate(0,0)"/>
<path d="" fill="#006118" transform="translate(0,0)"/>
<path d="" fill="#196E34" transform="translate(0,0)"/>
<path d="" fill="#4B8965" transform="translate(0,0)"/>
<path d="" fill="#4E8C62" transform="translate(0,0)"/>
<path d="" fill="#26743A" transform="translate(0,0)"/>
<path d="" fill="#378352" transform="translate(0,0)"/>
<path d="" fill="#328355" transform="translate(0,0)"/>
<path d="" fill="#307C51" transform="translate(0,0)"/>
<path d="" fill="#438554" transform="translate(0,0)"/>
<path d="" fill="#44875A" transform="translate(0,0)"/>
<path d="" fill="#2B8151" transform="translate(0,0)"/>
<path d="" fill="#337E51" transform="translate(0,0)"/>
<path d="" fill="#61916B" transform="translate(0,0)"/>
<path d="" fill="#1C7036" transform="translate(0,0)"/>
<path d="" fill="#328354" transform="translate(0,0)"/>
<path d="" fill="#267043" transform="translate(0,0)"/>
<path d="" fill="#06631F" transform="translate(0,0)"/>
<path d="" fill="#42885F" transform="translate(0,0)"/>
<path d="" fill="#38784E" transform="translate(0,0)"/>
<path d="" fill="#005F0F" transform="translate(0,0)"/>
<path d="" fill="#4A805C" transform="translate(0,0)"/>
<path d="" fill="#3E7E48" transform="translate(0,0)"/>
<path d="" fill="#719980" transform="translate(0,0)"/>
<path d="" fill="#176E37" transform="translate(0,0)"/>
<path d="" fill="#096D18" transform="translate(0,0)"/>
<path d="" fill="#44845D" transform="translate(0,0)"/>
<path d="" fill="#005308" transform="translate(0,0)"/>
<path d="" fill="#327C45" transform="translate(0,0)"/>
<path d="" fill="#28723D" transform="translate(0,0)"/>
<path d="" fill="#3D803C" transform="translate(0,0)"/>
<path d="" fill="#136D37" transform="translate(0,0)"/>
<path d="" fill="#447F3E" transform="translate(0,0)"/>
<path d="" fill="#70A22F" transform="translate(0,0)"/>
<path d="" fill="#57A400" transform="translate(0,0)"/>
<path d="" fill="#19A5DD" transform="translate(0,0)"/>
<path d="" fill="#11A4D9" transform="translate(0,0)"/>
<path d="" fill="#98B940" transform="translate(0,0)"/>
<path d="" fill="#179FDE" transform="translate(0,0)"/>
<path d="" fill="#96BF28" transform="translate(0,0)"/>
<path d="" fill="#109BE1" transform="translate(0,0)"/>
<path d="" fill="#10A3E7" transform="translate(0,0)"/>
<path d="" fill="#A6C251" transform="translate(0,0)"/>
<path d="" fill="#17A4E1" transform="translate(0,0)"/>
<path d="" fill="#AFCF4F" transform="translate(0,0)"/>
<path d="" fill="#A5CA3E" transform="translate(0,0)"/>
<path d="" fill="#A0C733" transform="translate(0,0)"/>
<path d="" fill="#AECA5C" transform="translate(0,0)"/>
<path d="" fill="#18A2DE" transform="translate(0,0)"/>
<path d="" fill="#A9CA50" transform="translate(0,0)"/>
<path d="" fill="#A3C73F" transform="translate(0,0)"/>
<path d="" fill="#35A8DE" transform="translate(0,0)"/>
<path d="" fill="#98C125" transform="translate(0,0)"/>
<path d="" fill="#77A800" transform="translate(0,0)"/>
<path d="" fill="#34A5D5" transform="translate(0,0)"/>
<path d="" fill="#2AACEB" transform="translate(0,0)"/>
<path d="" fill="#AFCC58" transform="translate(0,0)"/>
<path d="" fill="#02A4EF" transform="translate(0,0)"/>
<path d="" fill="#B1CD59" transform="translate(0,0)"/>
<path d="" fill="#B0CD59" transform="translate(0,0)"/>
<path d="" fill="#2DADE4" transform="translate(0,0)"/>
<path d="" fill="#AECD53" transform="translate(0,0)"/>
<path d="" fill="#008BE2" transform="translate(0,0)"/>
<path d="" fill="#A7CB44" transform="translate(0,0)"/>
<path d="" fill="#9AC126" transform="translate(0,0)"/>
<path d="" fill="#2BAEE9" transform="translate(0,0)"/>
<path d="" fill="#9AC229" transform="translate(0,0)"/>
<path d="" fill="#9AC327" transform="translate(0,0)"/>
<path d="" fill="#8FBD13" transform="translate(0,0)"/>
<path d="" fill="#42ABC7" transform="translate(0,0)"/>
<path d="" fill="#4DAB9D" transform="translate(0,0)"/>
<path d="" fill="#BBD36D" transform="translate(0,0)"/>
<path d="" fill="#3F9B11" transform="translate(0,0)"/>
<path d="" fill="#B3D15F" transform="translate(0,0)"/>
<path d="" fill="#AACB4E" transform="translate(0,0)"/>
<path d="" fill="#86C37D" transform="translate(0,0)"/>
<path d="" fill="#A8CB47" transform="translate(0,0)"/>
<path d="" fill="#7EB73D" transform="translate(0,0)"/>
<path d="" fill="#A3C844" transform="translate(0,0)"/>
<path d="" fill="#C1D779" transform="translate(0,0)"/>
<path d="" fill="#8DBB32" transform="translate(0,0)"/>
<path d="" fill="#B1CF54" transform="translate(0,0)"/>
<path d="" fill="#A4C939" transform="translate(0,0)"/>
<path d="" fill="#91BF16" transform="translate(0,0)"/>
<path d="" fill="#9BC143" transform="translate(0,0)"/>
<path d="" fill="#88B818" transform="translate(0,0)"/>
<path d="" fill="#AFCB53" transform="translate(0,0)"/>
<path d="" fill="#ACCB4B" transform="translate(0,0)"/>
<path d="" fill="#B0CB64" transform="translate(0,0)"/>
<path d="" fill="#96C021" transform="translate(0,0)"/>
<path d="" fill="#B7D35E" transform="translate(0,0)"/>
<path d="" fill="#89BD00" transform="translate(0,0)"/>
<path d="" fill="#88B30D" transform="translate(0,0)"/>
<path d="" fill="#91BD19" transform="translate(0,0)"/>
<path d="" fill="#69A200" transform="translate(0,0)"/>
</svg>
